<?xml version="1.0" encoding="UTF-8"?>
<svg id="Layer_1" xmlns="http://www.w3.org/2000/svg" version="1.1" viewBox="0 0 3492.69 753.44">
  <!-- Generator: Adobe Illustrator 29.8.1, SVG Export Plug-In . SVG Version: 2.1.1 Build 2)  -->
  <path d="M93.45,236.37c0-23.93,19.84-43.77,43.77-43.77h149.39c22.76,0,40.85,18.09,40.85,40.85s-18.09,40.85-40.85,40.85h-105.62v81.7h105.62c22.76,0,40.85,18.09,40.85,40.85s-18.09,40.85-40.85,40.85h-105.62v81.7h105.62c22.76,0,40.85,18.09,40.85,40.85s-18.09,40.85-40.85,40.85h-149.39c-23.93,0-43.77-19.84-43.77-43.77V236.37Z"/>
  <path d="M385.8,230.53c0-23.93,19.84-43.77,43.77-43.77s43.77,19.84,43.77,43.77v220.58l209.5-249.76c7.59-9.34,20.42-14.59,31.51-14.59,22.76,0,40.85,18.09,40.85,40.85,0,8.75-1.75,16.92-9.34,26.26l-281.27,335.54c-10.5,12.84-23.34,17.51-35.01,17.51-23.93,0-43.77-19.84-43.77-43.77V230.53Z"/>
  <path d="M796.03,236.37c0-23.93,19.84-43.77,43.77-43.77h149.39c22.76,0,40.85,18.09,40.85,40.85s-18.09,40.85-40.85,40.85h-105.62v81.7h105.62c22.76,0,40.85,18.09,40.85,40.85s-18.09,40.85-40.85,40.85h-105.62v81.7h105.62c22.76,0,40.85,18.09,40.85,40.85s-18.09,40.85-40.85,40.85h-149.39c-23.93,0-43.77-19.84-43.77-43.77V236.37Z"/>
  <path d="M1088.38,232.86c0-25.68,19.84-46.1,45.52-46.1,14.59,0,28.01,7,35.01,15.76l161.65,193.16v-165.15c0-23.93,19.84-43.77,43.77-43.77s43.77,19.84,43.77,43.77v332.63c0,23.93-19.84,43.77-43.77,43.77s-43.77-19.84-43.77-43.77v-31.51l-154.64-184.4v215.92c0,23.93-19.84,43.77-43.77,43.77s-43.77-19.84-43.77-43.77V232.86Z"/>
  <path d="M1573.31,274.3h-64.78c-22.76,0-40.85-18.09-40.85-40.85s18.09-40.85,40.85-40.85h217.08c22.76,0,40.85,18.09,40.85,40.85s-18.09,40.85-40.85,40.85h-64.77v288.86c0,23.93-19.84,43.77-43.77,43.77s-43.77-19.84-43.77-43.77v-288.86Z"/>
  <path d="M1953.2,236.37c0-23.93,19.84-43.77,43.77-43.77h98.04c79.36,0,134.22,57.77,134.22,128.38s-54.86,128.38-134.22,128.38h-1.75c-22.76,0-40.85-18.09-40.85-40.85s18.09-40.85,40.85-40.85c25.09-.58,45.52-21.01,45.52-46.68s-21.01-46.68-46.68-46.68h-51.35v288.86c0,23.93-19.84,43.77-43.77,43.77s-43.77-19.84-43.77-43.77V236.37Z"/>
  <path d="M2275.9,230.53c0-23.93,19.84-43.77,43.77-43.77s43.77,19.84,43.77,43.77v332.63c0,23.93-19.84,43.77-43.77,43.77s-43.77-19.84-43.77-43.77V230.53Z"/>
  <path d="M2433.45,230.53c0-23.93,19.84-43.77,43.77-43.77s43.77,19.84,43.77,43.77v288.86h105.62c22.76,0,40.85,18.09,40.85,40.85s-18.09,40.85-40.85,40.85h-149.39c-23.93,0-43.77-19.84-43.77-43.77V230.53Z"/>
  <path d="M2661.62,396.84c0-117.29,92.78-210.08,210.66-210.08s210.66,92.78,210.66,210.08-92.79,210.08-210.66,210.08-210.66-92.79-210.66-210.08ZM2992.49,396.84c0-70.03-53.1-125.46-120.21-125.46s-120.21,55.44-120.21,125.46,53.1,125.46,120.21,125.46,120.21-55.44,120.21-125.46Z"/>
  <path d="M3188.56,274.3h-64.78c-22.76,0-40.85-18.09-40.85-40.85s18.09-40.85,40.85-40.85h217.08c22.76,0,40.85,18.09,40.85,40.85s-18.09,40.85-40.85,40.85h-64.78v288.86c0,23.93-19.84,43.77-43.77,43.77s-43.77-19.84-43.77-43.77v-288.86Z"/>
</svg>